solid block-case
facet normal 0 0 -1
 outer loop
  vertex -7 -13 0
  vertex 7 13 0
  vertex 7 -13 0
 endloop
endfacet
facet normal 0 0 -1
 outer loop
  vertex -7 -13 0
  vertex -7 13 0
  vertex 7 13 0
 endloop
endfacet
facet normal 0 0 1
 outer loop
  vertex -7 -13 12
  vertex 7 -13 12
  vertex 7 13 12
 endloop
endfacet
facet normal 0 0 1
 outer loop
  vertex -7 -13 12
  vertex 7 13 12
  vertex -7 13 12
 endloop
endfacet
facet normal 0 -1 0
 outer loop
  vertex -7 -13 0
  vertex 7 -13 0
  vertex 7 -13 12
 endloop
endfacet
facet normal 0 -1 0
 outer loop
  vertex -7 -13 0
  vertex 7 -13 12
  vertex -7 -13 12
 endloop
endfacet
facet normal 0 1 0
 outer loop
  vertex -7 13 0
  vertex -7 13 12
  vertex 7 13 12
 endloop
endfacet
facet normal 0 1 0
 outer loop
  vertex -7 13 0
  vertex 7 13 12
  vertex 7 13 0
 endloop
endfacet
facet normal -1 0 0
 outer loop
  vertex -7 -13 0
  vertex -7 -13 12
  vertex -7 13 12
 endloop
endfacet
facet normal -1 0 0
 outer loop
  vertex -7 -13 0
  vertex -7 13 12
  vertex -7 13 0
 endloop
endfacet
facet normal 1 0 0
 outer loop
  vertex 7 -13 0
  vertex 7 13 12
  vertex 7 -13 12
 endloop
endfacet
facet normal 1 0 0
 outer loop
  vertex 7 -13 0
  vertex 7 13 0
  vertex 7 13 12
 endloop
endfacet
endsolid block-case