solid cable-holder
facet normal 0 0 -1
 outer loop
  vertex -5 -9 0
  vertex 5 9 0
  vertex 5 -9 0
 endloop
endfacet
facet normal 0 0 -1
 outer loop
  vertex -5 -9 0
  vertex -5 9 0
  vertex 5 9 0
 endloop
endfacet
facet normal 0 0 1
 outer loop
  vertex -5 -9 22
  vertex 5 -9 22
  vertex 5 9 22
 endloop
endfacet
facet normal 0 0 1
 outer loop
  vertex -5 -9 22
  vertex 5 9 22
  vertex -5 9 22
 endloop
endfacet
facet normal 0 -1 0
 outer loop
  vertex -5 -9 0
  vertex 5 -9 0
  vertex 5 -9 22
 endloop
endfacet
facet normal 0 -1 0
 outer loop
  vertex -5 -9 0
  vertex 5 -9 22
  vertex -5 -9 22
 endloop
endfacet
facet normal 0 1 0
 outer loop
  vertex -5 9 0
  vertex -5 9 22
  vertex 5 9 22
 endloop
endfacet
facet normal 0 1 0
 outer loop
  vertex -5 9 0
  vertex 5 9 22
  vertex 5 9 0
 endloop
endfacet
facet normal -1 0 0
 outer loop
  vertex -5 -9 0
  vertex -5 -9 22
  vertex -5 9 22
 endloop
endfacet
facet normal -1 0 0
 outer loop
  vertex -5 -9 0
  vertex -5 9 22
  vertex -5 9 0
 endloop
endfacet
facet normal 1 0 0
 outer loop
  vertex 5 -9 0
  vertex 5 9 22
  vertex 5 -9 22
 endloop
endfacet
facet normal 1 0 0
 outer loop
  vertex 5 -9 0
  vertex 5 9 0
  vertex 5 9 22
 endloop
endfacet
endsolid cable-holder