solid desk-stand
facet normal 0 0 -1
 outer loop
  vertex -14 -6 0
  vertex 14 6 0
  vertex 14 -6 0
 endloop
endfacet
facet normal 0 0 -1
 outer loop
  vertex -14 -6 0
  vertex -14 6 0
  vertex 14 6 0
 endloop
endfacet
facet normal 0 0 1
 outer loop
  vertex -14 -6 16
  vertex 14 -6 16
  vertex 14 6 16
 endloop
endfacet
facet normal 0 0 1
 outer loop
  vertex -14 -6 16
  vertex 14 6 16
  vertex -14 6 16
 endloop
endfacet
facet normal 0 -1 0
 outer loop
  vertex -14 -6 0
  vertex 14 -6 0
  vertex 14 -6 16
 endloop
endfacet
facet normal 0 -1 0
 outer loop
  vertex -14 -6 0
  vertex 14 -6 16
  vertex -14 -6 16
 endloop
endfacet
facet normal 0 1 0
 outer loop
  vertex -14 6 0
  vertex -14 6 16
  vertex 14 6 16
 endloop
endfacet
facet normal 0 1 0
 outer loop
  vertex -14 6 0
  vertex 14 6 16
  vertex 14 6 0
 endloop
endfacet
facet normal -1 0 0
 outer loop
  vertex -14 -6 0
  vertex -14 -6 16
  vertex -14 6 16
 endloop
endfacet
facet normal -1 0 0
 outer loop
  vertex -14 -6 0
  vertex -14 6 16
  vertex -14 6 0
 endloop
endfacet
facet normal 1 0 0
 outer loop
  vertex 14 -6 0
  vertex 14 6 16
  vertex 14 -6 16
 endloop
endfacet
facet normal 1 0 0
 outer loop
  vertex 14 -6 0
  vertex 14 6 0
  vertex 14 6 16
 endloop
endfacet
endsolid desk-stand