solid mini-tray
facet normal 0 0 -1
 outer loop
  vertex -16 -10 0
  vertex 16 10 0
  vertex 16 -10 0
 endloop
endfacet
facet normal 0 0 -1
 outer loop
  vertex -16 -10 0
  vertex -16 10 0
  vertex 16 10 0
 endloop
endfacet
facet normal 0 0 1
 outer loop
  vertex -16 -10 8
  vertex 16 -10 8
  vertex 16 10 8
 endloop
endfacet
facet normal 0 0 1
 outer loop
  vertex -16 -10 8
  vertex 16 10 8
  vertex -16 10 8
 endloop
endfacet
facet normal 0 -1 0
 outer loop
  vertex -16 -10 0
  vertex 16 -10 0
  vertex 16 -10 8
 endloop
endfacet
facet normal 0 -1 0
 outer loop
  vertex -16 -10 0
  vertex 16 -10 8
  vertex -16 -10 8
 endloop
endfacet
facet normal 0 1 0
 outer loop
  vertex -16 10 0
  vertex -16 10 8
  vertex 16 10 8
 endloop
endfacet
facet normal 0 1 0
 outer loop
  vertex -16 10 0
  vertex 16 10 8
  vertex 16 10 0
 endloop
endfacet
facet normal -1 0 0
 outer loop
  vertex -16 -10 0
  vertex -16 -10 8
  vertex -16 10 8
 endloop
endfacet
facet normal -1 0 0
 outer loop
  vertex -16 -10 0
  vertex -16 10 8
  vertex -16 10 0
 endloop
endfacet
facet normal 1 0 0
 outer loop
  vertex 16 -10 0
  vertex 16 10 8
  vertex 16 -10 8
 endloop
endfacet
facet normal 1 0 0
 outer loop
  vertex 16 -10 0
  vertex 16 10 0
  vertex 16 10 8
 endloop
endfacet
endsolid mini-tray