solid name-plate
facet normal 0 0 -1
 outer loop
  vertex -18 -5 0
  vertex 18 5 0
  vertex 18 -5 0
 endloop
endfacet
facet normal 0 0 -1
 outer loop
  vertex -18 -5 0
  vertex -18 5 0
  vertex 18 5 0
 endloop
endfacet
facet normal 0 0 1
 outer loop
  vertex -18 -5 7
  vertex 18 -5 7
  vertex 18 5 7
 endloop
endfacet
facet normal 0 0 1
 outer loop
  vertex -18 -5 7
  vertex 18 5 7
  vertex -18 5 7
 endloop
endfacet
facet normal 0 -1 0
 outer loop
  vertex -18 -5 0
  vertex 18 -5 0
  vertex 18 -5 7
 endloop
endfacet
facet normal 0 -1 0
 outer loop
  vertex -18 -5 0
  vertex 18 -5 7
  vertex -18 -5 7
 endloop
endfacet
facet normal 0 1 0
 outer loop
  vertex -18 5 0
  vertex -18 5 7
  vertex 18 5 7
 endloop
endfacet
facet normal 0 1 0
 outer loop
  vertex -18 5 0
  vertex 18 5 7
  vertex 18 5 0
 endloop
endfacet
facet normal -1 0 0
 outer loop
  vertex -18 -5 0
  vertex -18 -5 7
  vertex -18 5 7
 endloop
endfacet
facet normal -1 0 0
 outer loop
  vertex -18 -5 0
  vertex -18 5 7
  vertex -18 5 0
 endloop
endfacet
facet normal 1 0 0
 outer loop
  vertex 18 -5 0
  vertex 18 5 7
  vertex 18 -5 7
 endloop
endfacet
facet normal 1 0 0
 outer loop
  vertex 18 -5 0
  vertex 18 5 0
  vertex 18 5 7
 endloop
endfacet
endsolid name-plate