solid OpenSCAD_Model
  facet normal 0.9807852804032304 0.1950903220161282 -4.462265746830492e-19
    outer loop
      vertex 5 0 30
      vertex 4.619397662556434 1.913417161825449 0
      vertex 4.619397662556434 1.913417161825449 30
    endloop
  endfacet
  facet normal 0.9807852804032304 0.1950903220161282 -4.462265746830492e-19
    outer loop
      vertex 4.619397662556434 1.913417161825449 0
      vertex 5 0 30
      vertex 5 0 0
    endloop
  endfacet
  facet normal 0.8314696123025452 0.5555702330196022 1.5086096813631211e-18
    outer loop
      vertex 4.619397662556434 1.913417161825449 30
      vertex 3.5355339059327378 3.5355339059327378 0
      vertex 3.5355339059327378 3.5355339059327378 30
    endloop
  endfacet
  facet normal 0.8314696123025452 0.5555702330196022 1.5086096813631211e-18
    outer loop
      vertex 3.5355339059327378 3.5355339059327378 0
      vertex 4.619397662556434 1.913417161825449 30
      vertex 4.619397662556434 1.913417161825449 0
    endloop
  endfacet
  facet normal 0.5555702330196022 0.8314696123025452 0
    outer loop
      vertex 3.5355339059327378 3.5355339059327378 0
      vertex 1.913417161825449 4.619397662556434 30
      vertex 3.5355339059327378 3.5355339059327378 30
    endloop
  endfacet
  facet normal 0.5555702330196022 0.8314696123025452 0
    outer loop
      vertex 1.913417161825449 4.619397662556434 30
      vertex 3.5355339059327378 3.5355339059327378 0
      vertex 1.913417161825449 4.619397662556434 0
    endloop
  endfacet
  facet normal 0.1950903220161282 0.9807852804032304 0
    outer loop
      vertex 1.913417161825449 4.619397662556434 0
      vertex 0 5 30
      vertex 1.913417161825449 4.619397662556434 30
    endloop
  endfacet
  facet normal 0.1950903220161282 0.9807852804032304 0
    outer loop
      vertex 0 5 30
      vertex 1.913417161825449 4.619397662556434 0
      vertex 0 5 0
    endloop
  endfacet
  facet normal -0.1950903220161282 0.9807852804032304 0
    outer loop
      vertex 0 5 0
      vertex -1.913417161825449 4.619397662556434 30
      vertex 0 5 30
    endloop
  endfacet
  facet normal -0.1950903220161282 0.9807852804032304 0
    outer loop
      vertex -1.913417161825449 4.619397662556434 30
      vertex 0 5 0
      vertex -1.913417161825449 4.619397662556434 0
    endloop
  endfacet
  facet normal -0.5555702330196022 0.8314696123025452 0
    outer loop
      vertex -1.913417161825449 4.619397662556434 0
      vertex -3.5355339059327378 3.5355339059327378 30
      vertex -1.913417161825449 4.619397662556434 30
    endloop
  endfacet
  facet normal -0.5555702330196022 0.8314696123025452 0
    outer loop
      vertex -3.5355339059327378 3.5355339059327378 30
      vertex -1.913417161825449 4.619397662556434 0
      vertex -3.5355339059327378 3.5355339059327378 0
    endloop
  endfacet
  facet normal -0.8314696123025452 0.5555702330196022 -1.5086096813631211e-18
    outer loop
      vertex -4.619397662556434 1.913417161825449 0
      vertex -3.5355339059327378 3.5355339059327378 30
      vertex -3.5355339059327378 3.5355339059327378 0
    endloop
  endfacet
  facet normal -0.8314696123025452 0.5555702330196022 -1.5086096813631211e-18
    outer loop
      vertex -3.5355339059327378 3.5355339059327378 30
      vertex -4.619397662556434 1.913417161825449 0
      vertex -4.619397662556434 1.913417161825449 30
    endloop
  endfacet
  facet normal -0.9807852804032304 0.1950903220161282 4.462265746830492e-19
    outer loop
      vertex -5 0 0
      vertex -4.619397662556434 1.913417161825449 30
      vertex -4.619397662556434 1.913417161825449 0
    endloop
  endfacet
  facet normal -0.9807852804032304 0.1950903220161282 4.462265746830492e-19
    outer loop
      vertex -4.619397662556434 1.913417161825449 30
      vertex -5 0 0
      vertex -5 0 30
    endloop
  endfacet
  facet normal -0.9807852804032304 -0.1950903220161282 -4.462265746830492e-19
    outer loop
      vertex -4.619397662556434 -1.913417161825449 0
      vertex -5 0 30
      vertex -5 0 0
    endloop
  endfacet
  facet normal -0.9807852804032304 -0.1950903220161282 -4.462265746830492e-19
    outer loop
      vertex -5 0 30
      vertex -4.619397662556434 -1.913417161825449 0
      vertex -4.619397662556434 -1.913417161825449 30
    endloop
  endfacet
  facet normal -0.8314696123025452 -0.5555702330196022 1.5086096813631211e-18
    outer loop
      vertex -3.5355339059327378 -3.5355339059327378 0
      vertex -4.619397662556434 -1.913417161825449 30
      vertex -4.619397662556434 -1.913417161825449 0
    endloop
  endfacet
  facet normal -0.8314696123025452 -0.5555702330196022 1.5086096813631211e-18
    outer loop
      vertex -4.619397662556434 -1.913417161825449 30
      vertex -3.5355339059327378 -3.5355339059327378 0
      vertex -3.5355339059327378 -3.5355339059327378 30
    endloop
  endfacet
  facet normal -0.5555702330196022 -0.8314696123025452 0
    outer loop
      vertex -3.5355339059327378 -3.5355339059327378 0
      vertex -1.913417161825449 -4.619397662556434 30
      vertex -3.5355339059327378 -3.5355339059327378 30
    endloop
  endfacet
  facet normal -0.5555702330196022 -0.8314696123025452 0
    outer loop
      vertex -1.913417161825449 -4.619397662556434 30
      vertex -3.5355339059327378 -3.5355339059327378 0
      vertex -1.913417161825449 -4.619397662556434 0
    endloop
  endfacet
  facet normal -0.1950903220161282 -0.9807852804032304 0
    outer loop
      vertex -1.913417161825449 -4.619397662556434 0
      vertex 0 -5 30
      vertex -1.913417161825449 -4.619397662556434 30
    endloop
  endfacet
  facet normal -0.1950903220161282 -0.9807852804032304 0
    outer loop
      vertex 0 -5 30
      vertex -1.913417161825449 -4.619397662556434 0
      vertex 0 -5 0
    endloop
  endfacet
  facet normal 0.1950903220161282 -0.9807852804032304 0
    outer loop
      vertex 0 -5 0
      vertex 1.913417161825449 -4.619397662556434 30
      vertex 0 -5 30
    endloop
  endfacet
  facet normal 0.1950903220161282 -0.9807852804032304 0
    outer loop
      vertex 1.913417161825449 -4.619397662556434 30
      vertex 0 -5 0
      vertex 1.913417161825449 -4.619397662556434 0
    endloop
  endfacet
  facet normal 0.5555702330196022 -0.8314696123025452 0
    outer loop
      vertex 1.913417161825449 -4.619397662556434 0
      vertex 3.5355339059327378 -3.5355339059327378 30
      vertex 1.913417161825449 -4.619397662556434 30
    endloop
  endfacet
  facet normal 0.5555702330196022 -0.8314696123025452 0
    outer loop
      vertex 3.5355339059327378 -3.5355339059327378 30
      vertex 1.913417161825449 -4.619397662556434 0
      vertex 3.5355339059327378 -3.5355339059327378 0
    endloop
  endfacet
  facet normal 0.8314696123025452 -0.5555702330196022 -1.5086096813631211e-18
    outer loop
      vertex 3.5355339059327378 -3.5355339059327378 30
      vertex 4.619397662556434 -1.913417161825449 0
      vertex 4.619397662556434 -1.913417161825449 30
    endloop
  endfacet
  facet normal 0.8314696123025452 -0.5555702330196022 -1.5086096813631211e-18
    outer loop
      vertex 4.619397662556434 -1.913417161825449 0
      vertex 3.5355339059327378 -3.5355339059327378 30
      vertex 3.5355339059327378 -3.5355339059327378 0
    endloop
  endfacet
  facet normal 0.9807852804032304 -0.1950903220161282 4.462265746830492e-19
    outer loop
      vertex 4.619397662556434 -1.913417161825449 30
      vertex 5 0 0
      vertex 5 0 30
    endloop
  endfacet
  facet normal 0.9807852804032304 -0.1950903220161282 4.462265746830492e-19
    outer loop
      vertex 5 0 0
      vertex 4.619397662556434 -1.913417161825449 30
      vertex 4.619397662556434 -1.913417161825449 0
    endloop
  endfacet
  facet normal 0 0 -1
    outer loop
      vertex 4.619397662556434 -1.913417161825449 0
      vertex 4.619397662556434 1.913417161825449 0
      vertex 5 0 0
    endloop
  endfacet
  facet normal 0 0 -1
    outer loop
      vertex 3.5355339059327378 -3.5355339059327378 0
      vertex 4.619397662556434 1.913417161825449 0
      vertex 4.619397662556434 -1.913417161825449 0
    endloop
  endfacet
  facet normal 0 0 -1
    outer loop
      vertex 3.5355339059327378 -3.5355339059327378 0
      vertex 3.5355339059327378 3.5355339059327378 0
      vertex 4.619397662556434 1.913417161825449 0
    endloop
  endfacet
  facet normal 0 0 -1
    outer loop
      vertex 1.913417161825449 -4.619397662556434 0
      vertex 3.5355339059327378 3.5355339059327378 0
      vertex 3.5355339059327378 -3.5355339059327378 0
    endloop
  endfacet
  facet normal 0 0 -1
    outer loop
      vertex 1.913417161825449 -4.619397662556434 0
      vertex 1.913417161825449 4.619397662556434 0
      vertex 3.5355339059327378 3.5355339059327378 0
    endloop
  endfacet
  facet normal 0 0 -1
    outer loop
      vertex 0 -5 0
      vertex 1.913417161825449 4.619397662556434 0
      vertex 1.913417161825449 -4.619397662556434 0
    endloop
  endfacet
  facet normal 0 0 -1
    outer loop
      vertex 0 -5 0
      vertex 0 5 0
      vertex 1.913417161825449 4.619397662556434 0
    endloop
  endfacet
  facet normal 0 0 -1
    outer loop
      vertex -1.913417161825449 -4.619397662556434 0
      vertex 0 5 0
      vertex 0 -5 0
    endloop
  endfacet
  facet normal 0 0 -1
    outer loop
      vertex -1.913417161825449 -4.619397662556434 0
      vertex -1.913417161825449 4.619397662556434 0
      vertex 0 5 0
    endloop
  endfacet
  facet normal 0 0 -1
    outer loop
      vertex -3.5355339059327378 -3.5355339059327378 0
      vertex -1.913417161825449 4.619397662556434 0
      vertex -1.913417161825449 -4.619397662556434 0
    endloop
  endfacet
  facet normal 0 0 -1
    outer loop
      vertex -3.5355339059327378 -3.5355339059327378 0
      vertex -3.5355339059327378 3.5355339059327378 0
      vertex -1.913417161825449 4.619397662556434 0
    endloop
  endfacet
  facet normal 0 0 -1
    outer loop
      vertex -4.619397662556434 -1.913417161825449 0
      vertex -3.5355339059327378 3.5355339059327378 0
      vertex -3.5355339059327378 -3.5355339059327378 0
    endloop
  endfacet
  facet normal 0 0 -1
    outer loop
      vertex -4.619397662556434 -1.913417161825449 0
      vertex -4.619397662556434 1.913417161825449 0
      vertex -3.5355339059327378 3.5355339059327378 0
    endloop
  endfacet
  facet normal 0 0 -1
    outer loop
      vertex -4.619397662556434 1.913417161825449 0
      vertex -4.619397662556434 -1.913417161825449 0
      vertex -5 0 0
    endloop
  endfacet
  facet normal 0 0 1
    outer loop
      vertex 4.619397662556434 1.913417161825449 30
      vertex 4.619397662556434 -1.913417161825449 30
      vertex 5 0 30
    endloop
  endfacet
  facet normal 0 0 1
    outer loop
      vertex 3.5355339059327378 3.5355339059327378 30
      vertex 4.619397662556434 -1.913417161825449 30
      vertex 4.619397662556434 1.913417161825449 30
    endloop
  endfacet
  facet normal 0 0 1
    outer loop
      vertex 3.5355339059327378 3.5355339059327378 30
      vertex 3.5355339059327378 -3.5355339059327378 30
      vertex 4.619397662556434 -1.913417161825449 30
    endloop
  endfacet
  facet normal 0 0 1
    outer loop
      vertex 1.913417161825449 4.619397662556434 30
      vertex 3.5355339059327378 -3.5355339059327378 30
      vertex 3.5355339059327378 3.5355339059327378 30
    endloop
  endfacet
  facet normal 0 0 1
    outer loop
      vertex 1.913417161825449 4.619397662556434 30
      vertex 1.913417161825449 -4.619397662556434 30
      vertex 3.5355339059327378 -3.5355339059327378 30
    endloop
  endfacet
  facet normal 0 0 1
    outer loop
      vertex 0 5 30
      vertex 1.913417161825449 -4.619397662556434 30
      vertex 1.913417161825449 4.619397662556434 30
    endloop
  endfacet
  facet normal 0 0 1
    outer loop
      vertex 0 5 30
      vertex 0 -5 30
      vertex 1.913417161825449 -4.619397662556434 30
    endloop
  endfacet
  facet normal 0 0 1
    outer loop
      vertex -1.913417161825449 4.619397662556434 30
      vertex 0 -5 30
      vertex 0 5 30
    endloop
  endfacet
  facet normal 0 0 1
    outer loop
      vertex -1.913417161825449 4.619397662556434 30
      vertex -1.913417161825449 -4.619397662556434 30
      vertex 0 -5 30
    endloop
  endfacet
  facet normal 0 0 1
    outer loop
      vertex -3.5355339059327378 3.5355339059327378 30
      vertex -1.913417161825449 -4.619397662556434 30
      vertex -1.913417161825449 4.619397662556434 30
    endloop
  endfacet
  facet normal 0 0 1
    outer loop
      vertex -3.5355339059327378 3.5355339059327378 30
      vertex -3.5355339059327378 -3.5355339059327378 30
      vertex -1.913417161825449 -4.619397662556434 30
    endloop
  endfacet
  facet normal 0 0 1
    outer loop
      vertex -4.619397662556434 1.913417161825449 30
      vertex -3.5355339059327378 -3.5355339059327378 30
      vertex -3.5355339059327378 3.5355339059327378 30
    endloop
  endfacet
  facet normal 0 0 1
    outer loop
      vertex -4.619397662556434 1.913417161825449 30
      vertex -4.619397662556434 -1.913417161825449 30
      vertex -3.5355339059327378 -3.5355339059327378 30
    endloop
  endfacet
  facet normal 0 0 1
    outer loop
      vertex -4.619397662556434 -1.913417161825449 30
      vertex -4.619397662556434 1.913417161825449 30
      vertex -5 0 30
    endloop
  endfacet
endsolid OpenSCAD_Model
